<svg data-v-e90411aa="" width="114" height="38" viewBox="0 0 168 56" fill="#000" xmlns="http://www.w3.org/2000/svg" class="ui-icon ">
    <path d="M154.189 5.99297e-05H13.3486C12.8352 5.99297e-05 12.328 5.99298e-05 11.8159 0.00285993C11.3873 0.00565993 10.9621 0.0137939 10.5294 0.0206399C9.58932 0.0317025 8.65145 0.114407 7.72394 0.268034C6.79773 0.425006 5.90054 0.720942 5.06271 1.14583C4.2259 1.57432 3.46128 2.13109 2.7966 2.79596C2.12842 3.45895 1.57145 4.22528 1.14709 5.06548C0.72156 5.90401 0.426497 6.80257 0.27209 7.73013C0.116215 8.65652 0.0323377 9.59359 0.02121 10.5329C0.008218 10.9622 0.006846 11.3928 0 11.8221V44.1821C0.006846 44.6168 0.008218 45.0379 0.02121 45.4728C0.0323411 46.4121 0.116219 47.3491 0.27209 48.2754C0.42607 49.2035 0.721151 50.1026 1.14709 50.9414C1.57126 51.7789 2.12831 52.5422 2.7966 53.2015C3.45876 53.8693 4.22387 54.4264 5.06271 54.8516C5.90054 55.2777 6.79763 55.5754 7.72394 55.7348C8.65161 55.8872 9.58938 55.9699 10.5294 55.9823C10.9621 55.9918 11.3873 55.9973 11.8159 55.9973C12.3279 56.0001 12.8352 56.0001 13.3486 56.0001H154.189C154.692 56.0001 155.203 56.0001 155.706 55.9973C156.133 55.9973 156.57 55.9918 156.997 55.9823C157.935 55.9706 158.871 55.8878 159.797 55.7348C160.726 55.5742 161.627 55.2766 162.468 54.8516C163.306 54.4262 164.071 53.8691 164.732 53.2015C165.399 52.5396 165.957 51.7769 166.387 50.9414C166.809 50.102 167.102 49.203 167.253 48.2754C167.41 47.349 167.496 46.4121 167.513 45.4728C167.519 45.0379 167.519 44.6168 167.519 44.1821C167.53 43.6735 167.53 43.1677 167.53 42.6508V13.3506C167.53 12.8379 167.53 12.3294 167.519 11.8221C167.519 11.3928 167.519 10.9622 167.513 10.5329C167.496 9.59345 167.41 8.65659 167.253 7.73008C167.101 6.80305 166.809 5.90456 166.387 5.06543C165.523 3.38133 164.152 2.0105 162.468 1.14571C161.627 0.721854 160.726 0.425997 159.797 0.267908C158.871 0.113604 157.935 0.0308708 156.997 0.0204439C156.57 0.0136119 156.133 0.00540793 155.706 0.00267793C155.203 -0.00012207 154.692 -0.00012207 154.189 -0.00012207V5.99297e-05Z" fill="#A6A6A6"></path>
    <path d="M11.8227 54.775C11.3962 54.775 10.9799 54.7695 10.5567 54.76C9.68 54.7486 8.80535 54.6723 7.93991 54.5317C7.13294 54.3927 6.3512 54.1342 5.62048 53.7646C4.89646 53.3981 4.23609 52.9176 3.66468 52.3414C3.08499 51.772 2.60238 51.1115 2.23596 50.3863C1.86551 49.6563 1.60913 48.8739 1.47576 48.0662C1.33174 47.1984 1.25381 46.3208 1.24266 45.4412C1.23379 45.1459 1.22217 44.1629 1.22217 44.1629V11.8221C1.22217 11.8221 1.23454 10.8541 1.24273 10.5697C1.25341 9.69148 1.33088 8.81532 1.47448 7.94883C1.60809 7.13896 1.86467 6.35425 2.23532 5.62189C2.60039 4.89713 3.08032 4.23621 3.65652 3.66476C4.23206 3.08788 4.89454 2.60485 5.61979 2.2333C6.34883 1.86494 7.1291 1.60823 7.93444 1.47178C8.80272 1.32978 9.68041 1.253 10.5602 1.2421L11.8234 1.22501H155.699L156.978 1.24279C157.849 1.25315 158.719 1.32924 159.579 1.47041C160.393 1.60857 161.181 1.86707 161.919 2.2374C163.372 2.98619 164.554 4.17083 165.3 5.6253C165.664 6.35261 165.917 7.13092 166.049 7.93379C166.194 8.80739 166.276 9.69044 166.292 10.5759C166.296 10.9724 166.296 11.3982 166.296 11.8221C166.307 12.3471 166.307 12.8468 166.307 13.3506V42.6507C166.307 43.1593 166.307 43.6556 166.296 44.156C166.296 44.6113 166.296 45.0283 166.291 45.4576C166.275 46.3272 166.195 47.1945 166.052 48.0525C165.921 48.866 165.666 49.6545 165.296 50.3905C164.927 51.1079 164.447 51.7626 163.874 52.3305C163.302 52.9098 162.64 53.3931 161.915 53.762C161.179 54.1344 160.392 54.3938 159.579 54.5317C158.714 54.673 157.839 54.7494 156.963 54.76C156.553 54.7695 156.123 54.775 155.706 54.775L154.189 54.7778L11.8227 54.775Z" fill="black"></path>
    <path d="M34.6764 28.4209C34.6915 27.2524 35.0019 26.1067 35.5787 25.0903C36.1556 24.074 36.9801 23.2201 37.9756 22.6081C37.3432 21.7048 36.5089 20.9615 35.5389 20.4371C34.569 19.9128 33.4901 19.6218 32.388 19.5873C30.0371 19.3405 27.7579 20.9941 26.5599 20.9941C25.3388 20.9941 23.4943 19.6118 21.508 19.6527C20.2233 19.6942 18.9712 20.0678 17.8738 20.7371C16.7764 21.4063 15.871 22.3485 15.246 23.4717C12.5384 28.1595 14.558 35.0489 17.1516 38.8382C18.4493 40.6937 19.9659 42.7663 21.9503 42.6928C23.8922 42.6123 24.6175 41.4545 26.9615 41.4545C29.2837 41.4545 29.9642 42.6928 31.9889 42.6461C34.0726 42.6123 35.3855 40.7824 36.6376 38.9093C37.57 37.5872 38.2874 36.126 38.7634 34.5798C37.5528 34.0678 36.5197 33.2107 35.7929 32.1155C35.0662 31.0203 34.6779 29.7354 34.6764 28.4209Z" fill="white"></path>
    <path d="M30.8522 17.0952C31.9883 15.7314 32.5481 13.9783 32.4125 12.2084C30.6767 12.3907 29.0734 13.2203 27.9219 14.5318C27.3589 15.1726 26.9277 15.918 26.653 16.7254C26.3782 17.5329 26.2653 18.3866 26.3207 19.2378C27.1889 19.2467 28.0478 19.0585 28.8327 18.6874C29.6177 18.3163 30.3082 17.7719 30.8522 17.0952Z" fill="white"></path>
    <path d="M59.2231 37.9955H52.5964L51.005 42.6945H48.1981L54.4749 25.3093H57.3911L63.6678 42.6945H60.8131L59.2231 37.9955ZM53.2827 35.8271H58.5355L55.946 28.201H55.8736L53.2827 35.8271Z" fill="white"></path>
    <path d="M77.2235 36.3576C77.2235 40.2965 75.1153 42.8272 71.9339 42.8272C71.1279 42.8693 70.3264 42.6837 69.6211 42.2915C68.9158 41.8993 68.3352 41.3164 67.9458 40.6096H67.8856V46.8877H65.2838V30.0194H67.8022V32.1276H67.8501C68.2574 31.4241 68.8478 30.8442 69.5585 30.4497C70.2692 30.0551 71.0736 29.8605 71.886 29.8867C75.1029 29.8868 77.2235 32.4297 77.2235 36.3576ZM74.5493 36.3576C74.5493 33.7914 73.2231 32.1043 71.1997 32.1043C69.2118 32.1043 67.8747 33.827 67.8747 36.3576C67.8747 38.9116 69.2118 40.6219 71.1997 40.6219C73.2231 40.6219 74.5493 38.9471 74.5493 36.3576Z" fill="white"></path>
    <path d="M91.1743 36.3576C91.1743 40.2965 89.0661 42.8272 85.8847 42.8272C85.0787 42.8693 84.2772 42.6837 83.5719 42.2915C82.8666 41.8993 82.286 41.3164 81.8966 40.6096H81.8364V46.8877H79.2346V30.0193H81.753V32.1275H81.8008C82.2082 31.4241 82.7986 30.8442 83.5093 30.4497C84.2199 30.0551 85.0243 29.8605 85.8368 29.8867C89.0538 29.8867 91.1743 32.4297 91.1743 36.3576ZM88.5001 36.3576C88.5001 33.7914 87.1739 32.1043 85.1505 32.1043C83.1626 32.1043 81.8255 33.827 81.8255 36.3576C81.8255 38.9115 83.1626 40.6219 85.1505 40.6219C87.1739 40.6219 88.5001 38.9471 88.5001 36.3576H88.5001Z" fill="white"></path>
    <path d="M100.395 37.8506C100.587 39.5746 102.262 40.7066 104.551 40.7066C106.744 40.7066 108.322 39.5746 108.322 38.0201C108.322 36.6706 107.37 35.8627 105.117 35.3089L102.864 34.7662C99.6714 33.9951 98.1894 32.5021 98.1894 30.0794C98.1894 27.0798 100.803 25.0195 104.515 25.0195C108.189 25.0195 110.707 27.0798 110.792 30.0794H108.166C108.008 28.3445 106.574 27.2972 104.478 27.2972C102.383 27.2972 100.948 28.3568 100.948 29.899C100.948 31.1281 101.864 31.8513 104.105 32.405L106.021 32.8753C109.588 33.7188 111.07 35.1517 111.07 37.6946C111.07 40.9472 108.479 42.9843 104.358 42.9843C100.503 42.9843 97.8995 40.995 97.7313 37.8505L100.395 37.8506Z" fill="white"></path>
    <path d="M116.685 27.0197V30.0193H119.095V32.0797H116.685V39.0674C116.685 40.1529 117.167 40.6588 118.227 40.6588C118.513 40.6538 118.799 40.6337 119.083 40.5986V42.6466C118.606 42.7356 118.122 42.7759 117.638 42.7669C115.071 42.7669 114.071 41.8031 114.071 39.3449V32.0797H112.228V30.0193H114.071V27.0197H116.685Z" fill="white"></path>
    <path d="M120.491 36.3577C120.491 32.3696 122.84 29.8635 126.502 29.8635C130.177 29.8635 132.515 32.3695 132.515 36.3577C132.515 40.3567 130.19 42.8518 126.502 42.8518C122.816 42.8518 120.491 40.3567 120.491 36.3577ZM129.864 36.3577C129.864 33.6219 128.611 32.0073 126.502 32.0073C124.394 32.0073 123.142 33.6342 123.142 36.3577C123.142 39.1043 124.394 40.7067 126.502 40.7067C128.611 40.7067 129.864 39.1043 129.864 36.3577H129.864Z" fill="white"></path>
    <path d="M134.66 30.0194H137.142V32.1768H137.202C137.37 31.503 137.765 30.9075 138.32 30.4905C138.875 30.0734 139.557 29.8602 140.251 29.8867C140.551 29.8857 140.85 29.9182 141.142 29.9838V32.4174C140.764 32.3017 140.369 32.2486 139.973 32.2602C139.595 32.2448 139.219 32.3115 138.869 32.4555C138.519 32.5996 138.204 32.8176 137.947 33.0946C137.689 33.3717 137.495 33.7012 137.377 34.0605C137.258 34.4199 137.219 34.8005 137.262 35.1764V42.6945H134.66L134.66 30.0194Z" fill="white"></path>
    <path d="M153.138 38.9717C152.788 41.2726 150.547 42.8517 147.68 42.8517C143.993 42.8517 141.704 40.3812 141.704 36.4178C141.704 32.442 144.005 29.8635 147.571 29.8635C151.078 29.8635 153.283 32.2724 153.283 36.1156V37.007H144.331V37.1642C144.289 37.6307 144.348 38.1007 144.502 38.5428C144.656 38.985 144.903 39.3893 145.225 39.7289C145.548 40.0684 145.939 40.3355 146.372 40.5123C146.806 40.6892 147.272 40.7717 147.74 40.7545C148.355 40.8121 148.972 40.6697 149.5 40.3485C150.027 40.0273 150.437 39.5444 150.668 38.9717L153.138 38.9717ZM144.343 35.1887H150.68C150.703 34.7692 150.64 34.3495 150.493 33.9558C150.346 33.5621 150.12 33.203 149.828 32.9009C149.536 32.5988 149.185 32.3603 148.797 32.2004C148.408 32.0405 147.991 31.9626 147.571 31.9717C147.147 31.9691 146.727 32.0505 146.335 32.2112C145.943 32.3718 145.587 32.6085 145.287 32.9076C144.986 33.2067 144.749 33.5622 144.587 33.9538C144.425 34.3453 144.342 34.765 144.343 35.1887V35.1887Z" fill="white"></path>
    <path d="M51.4335 15.7548H52.5505C52.7428 15.7787 52.938 15.7626 53.1237 15.7074C53.3094 15.6521 53.4817 15.559 53.6297 15.4339C53.7777 15.3088 53.8981 15.1544 53.9834 14.9805C54.0688 14.8065 54.1172 14.6167 54.1255 14.4231C54.1255 13.6527 53.5458 13.1551 52.5628 13.1551C52.3658 13.1276 52.1653 13.1398 51.9731 13.191C51.7809 13.2423 51.6009 13.3315 51.4438 13.4535C51.2867 13.5754 51.1556 13.7277 51.0582 13.9011C50.9609 14.0746 50.8993 14.2658 50.8771 14.4635H49.6507C49.6718 14.1047 49.7665 13.754 49.929 13.4334C50.0915 13.1128 50.3183 12.8291 50.5952 12.5999C50.8721 12.3707 51.1932 12.201 51.5385 12.1013C51.8838 12.0015 52.246 11.974 52.6024 12.0203C54.2472 12.0203 55.4052 12.9411 55.4052 14.2666C55.4091 14.7106 55.2605 15.1426 54.9843 15.4903C54.7082 15.838 54.321 16.0805 53.8876 16.1772V16.2757C54.4014 16.2985 54.8853 16.5238 55.2335 16.9023C55.5817 17.2808 55.7658 17.7818 55.7457 18.2957C55.7076 18.6651 55.5962 19.0233 55.418 19.3491C55.2398 19.675 54.9983 19.962 54.7077 20.1933C54.4171 20.4246 54.0833 20.5955 53.7258 20.6961C53.3683 20.7968 52.9943 20.825 52.6257 20.7792C52.2564 20.8296 51.8807 20.805 51.521 20.7071C51.1614 20.6091 50.8251 20.4398 50.5323 20.2091C50.2395 19.9784 49.9962 19.6912 49.8167 19.3644C49.6373 19.0377 49.5255 18.6782 49.488 18.3073H50.7335C50.8087 19.1065 51.5429 19.6219 52.6257 19.6219C53.7085 19.6219 54.4154 19.0429 54.4154 18.2267C54.4154 17.3989 53.7496 16.8889 52.5861 16.8889H51.4335V15.7548Z" fill="white"></path>
    <path d="M57.1606 18.794C57.1606 17.6593 58.0069 17.0051 59.5054 16.9121L61.213 16.8137V16.2695C61.213 15.6037 60.7741 15.2277 59.9224 15.2277C59.2278 15.2277 58.7479 15.4827 58.6085 15.9284H57.404C57.5312 14.8456 58.5511 14.1511 59.9811 14.1511C61.5616 14.1511 62.453 14.9379 62.453 16.2695V20.5768H61.254V19.6909H61.1556C60.9558 20.0087 60.6752 20.2678 60.3425 20.4417C60.0099 20.6156 59.637 20.698 59.262 20.6807C58.9974 20.7082 58.7299 20.68 58.4768 20.5978C58.2238 20.5156 57.9907 20.3813 57.7927 20.2036C57.5948 20.0258 57.4362 19.8086 57.3273 19.5658C57.2185 19.323 57.1617 19.0601 57.1606 18.794ZM61.213 18.2553V17.7283L59.6735 17.8267C58.8053 17.8848 58.4116 18.1801 58.4116 18.7359C58.4116 19.3033 58.9037 19.6335 59.5806 19.6335C59.7789 19.6535 59.9792 19.6335 60.1696 19.5746C60.36 19.5157 60.5366 19.4191 60.6889 19.2905C60.8412 19.1619 60.9661 19.004 61.0561 18.8262C61.1462 18.6483 61.1995 18.4542 61.213 18.2553Z" fill="white"></path>
    <path d="M65.7548 15.32V20.5769H64.5106V14.2728H68.6615V15.32L65.7548 15.32Z" fill="white"></path>
    <path d="M76.2014 17.4221C76.2014 19.425 75.1884 20.6808 73.597 20.6808C73.2063 20.7074 72.8162 20.622 72.4725 20.4344C72.1288 20.2468 71.8458 19.9649 71.6569 19.6219H71.5585V22.6728H70.3143V14.2728H71.512V15.3146H71.605C71.7972 14.9596 72.0839 14.6647 72.4332 14.4624C72.7826 14.2601 73.1811 14.1583 73.5846 14.1682C75.1883 14.1682 76.2014 15.4184 76.2014 17.4221ZM74.9218 17.4221C74.9218 16.0904 74.2915 15.2858 73.2374 15.2858C72.1902 15.2858 71.5352 16.1075 71.5352 17.4275C71.5352 18.7414 72.1901 19.5638 73.2319 19.5638C74.2915 19.5638 74.9218 18.7592 74.9218 17.4221Z" fill="white"></path>
    <path d="M77.8586 22.8348V21.7636C77.9932 21.7807 78.1289 21.7885 78.2646 21.7868C78.5296 21.8065 78.7926 21.7275 79.0031 21.5652C79.2135 21.4028 79.3566 21.1684 79.4048 20.907L79.4978 20.6001L77.2159 14.2728H78.5708L80.1513 19.2801H80.2498L81.8248 14.2728H83.1441L80.7939 20.8373C80.2553 22.3713 79.6592 22.8635 78.374 22.8635C78.2701 22.8635 77.9748 22.8519 77.8586 22.8348Z" fill="white"></path>
    <path d="M84.1134 18.7879H85.3521C85.4738 19.3437 85.9947 19.6335 86.7234 19.6335C87.5519 19.6335 88.0605 19.2685 88.0605 18.7011C88.0605 18.0934 87.6038 17.8035 86.7234 17.8035H85.78V16.8369H86.707C87.4589 16.8369 87.8417 16.5478 87.8417 16.0207C87.8417 15.5579 87.4712 15.2045 86.707 15.2045C86.0111 15.2045 85.5025 15.4999 85.4218 15.9975H84.2228C84.3124 15.4257 84.6229 14.9119 85.0875 14.5666C85.552 14.2213 86.1336 14.0721 86.707 14.1511C88.2054 14.1511 89.0626 14.8286 89.0626 15.8936C89.0696 16.1902 88.9746 16.4802 88.7934 16.7151C88.6123 16.95 88.3559 17.1156 88.0673 17.1842V17.2827C88.4109 17.327 88.7263 17.4959 88.9537 17.7574C89.181 18.0189 89.3044 18.3547 89.3005 18.7011C89.3005 19.8995 88.2806 20.6924 86.7234 20.6924C85.3466 20.6924 84.2283 20.0614 84.1134 18.7879Z" fill="white"></path>
    <path d="M91.0923 20.5769V14.2728H92.3255V18.6088H92.4239L95.3292 14.2728H96.5624V20.5769H95.3292V16.2176H95.2362L92.3255 20.5769L91.0923 20.5769Z" fill="white"></path>
    <path d="M103.356 15.32H101.371V20.5769H100.125V15.32H98.14V14.2728H103.356V15.32Z" fill="white"></path>
    <path d="M110.058 18.8747C109.888 19.4508 109.522 19.9491 109.022 20.2824C108.523 20.6158 107.922 20.7631 107.325 20.6985C106.91 20.7095 106.497 20.6299 106.115 20.4654C105.734 20.3008 105.393 20.0553 105.116 19.7457C104.839 19.4361 104.632 19.0699 104.511 18.6725C104.389 18.2752 104.356 17.8562 104.413 17.4446C104.357 17.0318 104.391 16.6119 104.513 16.2133C104.634 15.8148 104.839 15.4469 105.115 15.1346C105.39 14.8223 105.73 14.5729 106.11 14.4032C106.49 14.2335 106.903 14.1475 107.319 14.151C109.073 14.151 110.133 15.3494 110.133 17.329V17.7632H105.682V17.8329C105.662 18.0643 105.691 18.2973 105.766 18.5168C105.842 18.7364 105.963 18.9376 106.121 19.1077C106.279 19.2778 106.471 19.4129 106.685 19.5044C106.898 19.5959 107.128 19.6417 107.36 19.6389C107.658 19.6745 107.959 19.6208 108.226 19.4847C108.493 19.3486 108.713 19.1363 108.859 18.8746L110.058 18.8747ZM105.681 16.843H108.864C108.88 16.6316 108.851 16.4192 108.78 16.2194C108.709 16.0197 108.597 15.8371 108.451 15.6833C108.305 15.5295 108.128 15.4079 107.932 15.3264C107.737 15.2449 107.526 15.2052 107.314 15.2099C107.099 15.207 106.885 15.2473 106.686 15.3283C106.486 15.4094 106.305 15.5295 106.153 15.6818C106.001 15.834 105.881 16.0152 105.8 16.2147C105.719 16.4142 105.678 16.6278 105.682 16.843H105.681Z" fill="white"></path>
    <path d="M115.332 14.2728H118.175C119.408 14.2728 120.131 14.8976 120.131 15.8758C120.133 16.1862 120.028 16.4878 119.835 16.7302C119.641 16.9726 119.369 17.1411 119.066 17.2074V17.3058C119.434 17.3291 119.78 17.4929 120.03 17.7633C120.281 18.0338 120.419 18.3903 120.414 18.7592C120.414 19.8591 119.587 20.5768 118.203 20.5768H115.332V14.2728ZM116.566 15.2277V16.8601H117.799C118.551 16.8601 118.91 16.571 118.91 16.0378C118.91 15.5463 118.597 15.2277 117.937 15.2277L116.566 15.2277ZM116.566 17.7748V19.6219H118.041C118.776 19.6219 119.17 19.2972 119.17 18.7011C119.17 18.0702 118.724 17.7748 117.885 17.7748L116.566 17.7748Z" fill="white"></path>
    <defs>
    <clipPath id="clip0">
    <rect width="167.53" height="56" fill="white"></rect>
    </clipPath>
    </defs>
    </svg>
