   <svg width="24" height="24" viewBox="0 0 24 24" fill="#000" xmlns="http://www.w3.org/2000/svg" class="ui-icon ">
        <path fillRule="evenodd" clipRule="evenodd" d="M4.5 18.6644V8.01852L8.25 6.14352V16.7964C8.20123 16.8162 8.15305 16.8379 8.10558 16.8616L4.5 18.6644ZM9.75 16.7964V6.14352L14.1056 8.3213C14.153 8.34504 14.2012 8.36678 14.25 8.38651V19.0394L9.89443 16.8616C9.84695 16.8379 9.79877 16.8162 9.75 16.7964ZM15.75 19.0394L19.5 17.1644V6.51852L15.8944 8.32131C15.847 8.34504 15.7988 8.36678 15.75 8.38651V19.0394ZM8.77639 18.2033C8.91716 18.1329 9.08284 18.1329 9.22361 18.2033L14.6646 20.9238C14.8757 21.0293 15.1243 21.0293 15.3354 20.9238L20.5854 18.2988C20.8395 18.1717 21 17.912 21 17.6279V5.30499C21 4.74746 20.4133 4.38483 19.9146 4.63417L15.2236 6.97966C15.0828 7.05005 14.9172 7.05005 14.7764 6.97966L9.33541 4.25917C9.12426 4.1536 8.87574 4.1536 8.66459 4.25917L3.41459 6.88417C3.1605 7.01122 3 7.27091 3 7.55499V19.8779C3 20.4355 3.58673 20.7981 4.08541 20.5488L8.77639 18.2033Z" fill="black"></path>
        </svg>